{"title":"O Som ao Redor AKA Neighbouring Sounds (2012) WEB-DL XviD","uid":8315539,"size":1951762955,"categoryP":"video","categoryS":"movies","magnet":"?xt=urn:btih:ae58918c7cd71da71b2cad6828fcaf83305bae46&amp;dn=O+Som+ao+Redor+AKA+Neighbouring+Sounds+%282012%29+WEB-DL+XviD&amp;tr=udp%3A%2F%2Ftracker.openbittorrent.com%3A80&amp;tr=udp%3A%2F%2Fopen.demonii.com%3A1337&amp;tr=udp%3A%2F%2Ftracker.coppersurfer.tk%3A6969&amp;tr=udp%3A%2F%2Fexodus.desync.com%3A6969","seeders":11,"leechers":0,"uploader":"rpessoa","files":2,"time":1364577867,"description":"Life in a middle-class neighborhood in present day Recife, Brazil, takes an unexpected turn after the arrival of an independent private security firm. The presence of these men brings a sense of safety and a good deal of anxiety to a culture which runs on fear. Meanwhile, Bia, married and mother of two, must find a way to deal with the constant barking and howling of her neighbor's dog. A slice of 'Braziliana', a reflection on history, violence and noise. Written by O Som ao Redor\n\nSUBS: Spanish\n  &lt;a href=&quot;\nhttp://www.imdb.com/title/tt2190367/&quot; rel=&quot;nofollow&quot; target=&quot;_NEW&quot;&gt;\nhttp://www.imdb.com/title/tt2190367/&lt;/a&gt;\n\nGeneral \nComplete name : O Som ao Redor.avi \nFormat : AVI \nFormat/Info : Audio Video Interleave \nFile size : 1.82 GiB \nDuration : 2h 11mn \nOverall bit rate : 1 986 Kbps \nWriting application : FairUse Wizard - http://fairusewizard.com \nWriting library : The best and REALLY easy backup tool \n\nVideo \nID : 0 \nFormat : MPEG-4 Visual \nFormat profile : Advanced Simple@L5 \nFormat settings, BVOP : 1 \nFormat settings, QPel : No \nFormat settings, GMC : No warppoints \nFormat settings, Matrix : Default (MPEG) \nMuxing mode : Packed bitstream \nCodec ID : XVID \nCodec ID/Hint : XviD \nDuration : 2h 11mn \nBit rate : 1 785 Kbps \nWidth : 704 pixels \nHeight : 288 pixels \nDisplay aspect ratio : 2.40:1 \nFrame rate : 23.976 fps \nColor space : YUV \nChroma subsampling : 4:2:0 \nBit depth : 8 bits \nScan type : Progressive \nCompression mode : Lossy \nBits/(Pixel*Frame) : 0.367 \nStream size : 1.63 GiB (90%) \nWriting library : XviD 1.2.0.dev47 (UTC 2006-11-01) \n\nAudio \nID : 1 \nFormat : AC-3 \nFormat/Info : Audio Coding 3 \nMode extension : CM (complete main) \nFormat settings, Endianness : Big \nCodec ID : 2000 \nDuration : 2h 11mn \nBit rate mode : Constant \nBit rate : 192 Kbps \nChannel(s) : 2 channels \nChannel positions : Front: L R \nSampling rate : 48.0 KHz \nBit depth : 16 bits \nCompression mode : Lossy \nStream size : 180 MiB (10%) \nAlignment : Split accross interleaves \nInterleave, duration : 42 ms (1.00 video frame) \nInterleave, preload duration : 500 ms \n\n","torrent":{"xt":"urn:btih:ae58918c7cd71da71b2cad6828fcaf83305bae46","amp;dn":"O+Som+ao+Redor+AKA+Neighbouring+Sounds+%282012%29+WEB-DL+XviD","amp;tr":["udp%3A%2F%2Ftracker.openbittorrent.com%3A80","udp%3A%2F%2Fopen.demonii.com%3A1337","udp%3A%2F%2Ftracker.coppersurfer.tk%3A6969","udp%3A%2F%2Fexodus.desync.com%3A6969"],"infoHash":"ae58918c7cd71da71b2cad6828fcaf83305bae46","infoHashBuffer":{"type":"Buffer","data":[174,88,145,140,124,215,29,167,27,44,173,104,40,252,175,131,48,91,174,70]},"announce":[],"urlList":[]}}